<svg width="1200" height="630" viewBox="0 0 1200 630" role="img" aria-labelledby="title desc" xmlns="http://www.w3.org/2000/svg">
  <title id="title">Pharos</title>
  <desc id="desc">Trace vulnerable JavaScript dependencies through lockfiles.</desc>
  <rect width="1200" height="630" fill="#0f172a"/>
  <circle cx="980" cy="118" r="170" fill="#134e4a" opacity=".45"/>
  <circle cx="1040" cy="520" r="220" fill="#1e3a8a" opacity=".28"/>
  <g transform="translate(84 82)">
    <rect width="132" height="132" rx="28" fill="#0f1f1b"/>
    <path d="M34 107h64l-7-15H41l-7 15Z" fill="#d9fff3"/>
    <path d="M45 92h42L79 38H53L45 92Z" fill="#f8f1dd"/>
    <path d="M57 38h18l-4-15H61l-4 15Z" fill="#d9fff3"/>
    <path d="M47 54h38l-2-16H49l-2 16Z" fill="#17a982"/>
    <path d="M79 45 116 27v29L79 45Z" fill="#f5b64a"/>
  </g>
  <text x="84" y="292" fill="#f8fafc" font-family="Inter, ui-sans-serif, system-ui, -apple-system, BlinkMacSystemFont, 'Segoe UI', sans-serif" font-size="88" font-weight="760" letter-spacing="-2">Pharos</text>
  <text x="84" y="378" fill="#cbd5e1" font-family="Inter, ui-sans-serif, system-ui, -apple-system, BlinkMacSystemFont, 'Segoe UI', sans-serif" font-size="42" font-weight="520">Trace vulnerable JavaScript dependencies</text>
  <text x="84" y="438" fill="#99f6e4" font-family="ui-monospace, SFMono-Regular, Menlo, Monaco, Consolas, monospace" font-size="32" font-weight="600">npx pharos-cli@latest qs@6.13.0</text>
  <text x="84" y="536" fill="#94a3b8" font-family="Inter, ui-sans-serif, system-ui, -apple-system, BlinkMacSystemFont, 'Segoe UI', sans-serif" font-size="28" font-weight="520">pharos-cli.io</text>
</svg>
